<svg width="104" height="79" viewBox="0 0 104 79" fill="none" xmlns="http://www.w3.org/2000/svg">
<path d="M25.2867 14.8112C43.6208 7.12769 53.5172 8.45544 70.6315 18.788C77.1732 24.9225 79.7452 29.1126 82.0942 38.1061C82.8927 40.3466 83.8325 40.6353 86.469 39.2719C98.3271 30.9664 103.376 28.7216 102.99 38.8772L102.066 60.6756C98.4111 68.9753 95.8907 69.4515 90.9708 66.478L83.9098 59.8784C81.5916 58.2504 80.9455 58.4904 80.6556 60.4013C72.9216 72.4295 66.5832 75.4729 53.7174 78.027L45.7891 61.5268L57.3725 66.1275C63.9004 64.5037 69.2162 56.8531 65.0938 50.8969C62.1486 47.8816 60.2257 47.1895 56.395 47.4968L45.1299 49.9052C40.5438 50.9997 40.4947 53.5283 46.4448 54.0501C51.9805 52.5266 54.7939 52.071 58.5209 53.0334C62.3349 54.5802 60.8548 60.9553 55.9018 61.1814L47.5366 58.2072C43.0314 56.1109 41.042 59.1026 45.7891 61.5268L53.7174 78.027C33.6805 79.1916 23.7976 76.1355 8.71411 63.7014L1.08047 53.4224C-1.221 46.8988 0.119865 46.2303 5.4333 48.3775C11.73 52.9423 15.5116 49.9728 11.0702 44.8146C7.94888 41.5754 5.74859 40.9791 1.49308 40.8129C3.60241 34.4718 6.72177 30.4875 14.7891 22.8475L27.1273 26.5061C21.9101 26.9974 20.0445 28.4555 17.9771 32.483C18.0265 37.9596 19.4332 40.1757 25.7916 41.7366C30.9038 41.6956 32.9711 40.3172 34.8071 34.7411C33.7211 29.9454 32.2079 28.0012 27.1273 26.5061L14.7891 22.8475L25.2867 14.8112Z" fill="#31B7FF"/>
<path d="M29.9613 35.2201C29.8503 36.4853 28.3685 37.3888 26.6515 37.2382C24.9345 37.0876 22.9781 35.8824 23.089 34.6172C23.2 33.3521 26.0166 31.3295 27.7335 31.4801C29.4505 31.6307 30.0722 33.955 29.9613 35.2201Z" fill="#31B7FF"/>
<path d="M40.3474 5.27654C47.2621 0.0530281 51.5872 -0.579951 59.7111 0.367575C68.804 1.85937 73.3032 3.47774 78.8175 9.63664C79.5271 11.546 79.2886 12.5641 78.4056 14.3338C76.6321 17.1605 75.6631 17.5299 74.0003 16.2155C63.4498 8.66421 56.2498 6.81538 41.3501 7.33668C38.0914 8.12463 37.8256 7.69928 40.3474 5.27654Z" fill="#31B7FF"/>
</svg>
