<?xml version="1.0" encoding="UTF-8"?>
<svg id="Capa_1" xmlns="http://www.w3.org/2000/svg" version="1.1" viewBox="0 0 38 31">
  <!-- Generator: Adobe Illustrator 29.4.0, SVG Export Plug-In . SVG Version: 2.1.0 Build 152)  -->
  <defs>
    <style>
      .st0 {
        fill: #11ce86;
      }
    </style>
  </defs>
  <path class="st0" d="M6.3,9.5l4.3,1.2c1.8.5,2.3,1.2,2.7,2.8-.6,2-1.3,2.4-3.1,2.5-2.2-.5-2.7-1.3-2.8-3.2.7-1.4,1.3-1.9,3.2-2.1l-4.3-1.2c-2.8,2.7-3.9,4.1-4.6,6.3,1.5,0,2.3.2,3.4,1.4,1.6,1.8.3,2.8-2,1.3-1.9-.7-2.3-.5-1.5,1.8l2.7,3.6c5.3,4.3,8.8,5.3,15.8,4.8l-2.8-5.7c-1.7-.8-1-1.9.6-1.2l2.9,1c1.7-.1,2.2-2.3.9-2.9-1.3-.3-2.3-.1-4.2.4-2.1-.2-2.1-1-.5-1.4l3.9-.9c1.3-.1,2,.1,3.1,1.1,1.5,2.1-.4,4.8-2.6,5.4l-4.1-1.6,2.8,5.7c4.5-1,6.7-2,9.3-6.3,0-.7.3-.8,1.1-.2l2.5,2.3c1.7,1,2.6.8,3.8-2.1l.2-7.6c0-3.5-1.7-2.7-5.8.2-.9.5-1.2.4-1.5-.4-.9-3.1-1.8-4.6-4.1-6.7-6-3.5-9.5-3.9-15.9-1.2l-3.6,2.9Z"/>
  <path class="st0" d="M10.8,12.5c-.6,0-1.6.7-1.6,1.1,0,.4.7.9,1.3.9.6,0,1.1-.3,1.1-.7,0-.4-.2-1.3-.8-1.3Z"/>
  <path class="st0" d="M15.5,4c5.2-.3,7.7.4,11.4,2.9.6.5.9.3,1.5-.7.3-.6.4-1,.1-1.6-2-2.1-3.5-2.7-6.7-3.1-2.8-.3-4.3,0-6.7,1.8-.9.9-.8,1,.4.7Z"/>
</svg>