<?xml version="1.0" encoding="UTF-8"?>
<svg id="Capa_1" xmlns="http://www.w3.org/2000/svg" version="1.1" viewBox="0 0 62 49">
  <!-- Generator: Adobe Illustrator 29.4.0, SVG Export Plug-In . SVG Version: 2.1.0 Build 152)  -->
  <defs>
    <style>
      .st0 {
        fill: #ed6758;
      }
    </style>
  </defs>
  <path class="st0" d="M7,17.6l7.3,1.1c3,.5,4,1.4,5,4.1-.6,3.3-1.7,4.3-4.6,4.7-3.7-.4-4.7-1.5-5.2-4.7.9-2.5,1.8-3.4,4.7-4.1l-7.3-1.1c-4,5-5.5,7.5-6.2,11.3,2.4-.2,3.7,0,5.8,1.5,2.9,2.6,1,4.6-2.9,2.5-3.2-.8-3.9-.3-2.1,3.2l5.1,5.3c9.6,5.9,15.4,6.9,26.7,4.6l-5.8-8.8c-2.9-1-2-2.9.7-2l5,1c2.8-.5,3.1-4.3.9-4.8-2.2-.3-3.8.2-6.8,1.5-3.4.2-3.6-1.3-1.1-2.3l6.2-2.2c2.2-.5,3.3-.2,5.2,1.3,2.8,3.1.4,7.8-3.2,9.3l-6.9-1.7,5.8,8.8c7.1-2.5,10.5-4.7,14-12.1,0-1.1.4-1.3,1.8-.6l4.5,3.2c3,1.3,4.4.8,5.9-4.2l-1.2-12.5c-.6-5.8-3.3-4.1-9.4,1.5-1.4,1-2,.9-2.6-.3-2-4.9-3.8-7.1-8-10.1-10.5-4.5-16.3-4.5-26.1,1.3l-5.3,5.4Z"/>
  <path class="st0" d="M15.1,21.5c-1,0-2.4,1.4-2.4,2.1,0,.7,1.2,1.3,2.2,1.2,1,0,1.8-.7,1.7-1.4,0-.7-.6-2-1.6-2Z"/>
  <path class="st0" d="M20.9,6.7c8.4-1.5,12.7-1,19.3,2.5,1,.6,1.6.3,2.4-1.4.4-1.1.4-1.7-.1-2.7-3.6-3.1-6.3-3.6-11.6-3.8-4.7,0-7.1.8-10.6,4.3-1.2,1.6-1.1,1.8.7,1.1Z"/>
</svg>