<svg width="74" height="65" viewBox="0 0 74 65" fill="none" xmlns="http://www.w3.org/2000/svg">
<path d="M24.1887 14.0793C35.9366 12.1011 41.5298 14.2281 50.1043 22.5956C53.0832 27.069 54.0115 29.8654 54.1533 35.4342C54.3131 36.8506 54.822 37.1475 56.5467 36.7122C64.6009 33.4861 67.8537 32.8661 66.2409 38.7393L62.7234 51.3326C59.4564 55.6761 57.9207 55.6096 55.4562 53.2023L52.2378 48.3865C51.1075 47.1198 50.6977 47.1716 50.2675 48.247C44.1111 54.2088 39.9968 55.1186 32.1405 54.851L29.7688 44.1396L35.8992 48.4069C39.9302 48.3514 44.0773 44.6135 42.4857 40.5748C41.1792 38.4129 40.1517 37.7463 37.8745 37.4022L30.9721 37.2683C28.1465 37.2803 27.7724 38.749 31.173 39.8666C34.6113 39.734 36.3152 39.8525 38.3584 40.9233C40.3726 42.3471 38.6379 45.8647 35.7169 45.3199L31.2421 42.4414C28.8997 40.6026 27.3301 42.0765 29.7688 44.1396L32.1405 54.851C20.2897 52.7927 14.9405 49.6591 7.83814 40.3427L4.78835 33.3018C4.3368 29.1807 5.21054 28.9739 8.01758 30.9528C11.0681 34.4768 13.6804 33.2608 11.7936 29.644C10.4149 27.3274 9.21247 26.6789 6.75205 26.0004C8.8493 22.5885 11.2139 20.6899 16.9652 17.3342L23.6647 21.1549C20.5533 20.7287 19.2654 21.3246 17.5088 23.3922C16.7893 26.5946 17.3073 28.0799 20.8042 29.8595C23.7929 30.5341 25.1874 30.0122 27.0207 27.0094C27.0423 24.0627 26.4249 22.7215 23.6647 21.1549L16.9652 17.3342L24.1887 14.0793Z" fill="white"/>
<path d="M24.1276 26.6268C23.89 27.3499 22.9019 27.6746 21.9206 27.3521C20.9393 27.0297 19.9624 26.059 20.2 25.336C20.4376 24.6129 22.3575 23.8176 23.3388 24.1401C24.3201 24.4625 24.3652 25.9037 24.1276 26.6268Z" fill="white"/>
<path d="M34.2796 10.5737C39.0281 8.47053 41.6383 8.69216 46.2492 10.3551C51.3511 12.468 53.7553 14.0271 56.1314 18.3743C56.2846 19.5854 56.0063 20.1469 55.2492 21.0589C53.8282 22.4659 53.2123 22.5491 52.4216 21.5549C47.2971 15.7071 43.3485 13.6445 34.5832 11.9128C32.5741 11.9273 32.4771 11.6428 34.2796 10.5737Z" fill="white"/>
</svg>
