<svg width="884" height="342" viewBox="0 0 884 342" fill="none" xmlns="http://www.w3.org/2000/svg">
<path d="M11.1778 68.7594C11.6497 69.642 12.1139 70.5173 12.5717 71.3834C31.5849 107.182 47.4052 149.77 80.6461 178.348C86.2791 183.661 92.1304 188.76 98.0883 193.697C85.1715 203.428 73.1939 214.869 63.9988 228.745C62.2217 231.416 60.5622 234.145 59.0123 236.929C45.9172 259.782 40.8884 284.402 35.1511 300.191C31.2623 311.74 27.958 320.274 24.8406 327.534L36.6283 336.589C37.5402 335.808 38.4322 335.049 39.3022 334.303C43.9593 330.312 48.08 326.779 52.3329 323.307C54.6166 321.443 57.7447 318.905 61.5152 315.846C76.9139 303.35 103.066 282.128 126.554 262.318C136.977 253.528 148.997 243.208 160.471 233.355C161.821 232.196 163.163 231.042 164.495 229.899C178.287 238.179 190.65 244.746 197.621 248.568C213.454 257.309 232.331 265.905 249.37 272.584C265.601 278.993 280.102 283.745 288.281 286.661C298.054 290.133 306.578 292.556 319.332 295.717C328.187 297.884 339.086 300.402 353.999 303.315C371.219 306.642 383.538 308.205 394.007 309.397C408.749 311.012 419.856 311.93 436.417 313.376C454.818 314.963 474.159 315.482 489.365 315.004C496.283 314.798 504.213 314.525 512.441 314.07C523.338 313.473 534.786 312.536 545.194 311.253C553.773 310.197 560.793 308.954 567.009 307.783C568.946 307.418 570.802 307.059 572.598 306.711C579.385 305.684 586.165 304.551 592.924 303.311C594.026 303.159 595.185 303 596.395 302.829C602.455 301.971 609.937 300.833 619.074 298.935C633.545 295.915 646.05 292.41 659.112 288.329C669.259 285.145 679.77 281.593 691.741 277.346C699.908 274.449 709.159 271.041 718.25 267.412C731.746 262.049 744.844 256.155 753.746 251.605C757.078 249.908 759.851 248.276 762.577 246.645C762.589 246.638 762.6 246.629 762.612 246.622C762.797 246.511 762.985 246.403 763.169 246.292C781.842 236.764 799.991 226.208 817.453 214.608C820.327 212.697 822.947 210.929 825.767 208.99C827.558 207.802 829.272 206.653 831.02 205.459C839.577 199.642 847.696 193.515 852.916 189.287C855.746 186.968 860.694 182.843 866.029 176.388C870.982 170.278 878.21 159.513 874.808 146.557C869.691 130.459 856.984 123.373 848.36 117.282C843.092 113.868 837.739 111.195 832.35 108.686C827.155 106.268 822.009 104.048 816.372 101.443C813.403 100.074 810.599 98.7449 807.227 97.1925C806.943 97.0616 806.655 96.9288 806.366 96.7961C803.728 95.5849 800.965 94.3264 798.081 93.0631C795.093 91.755 788.502 89.1163 779.904 85.8181C774.529 83.7554 768.46 81.4721 762.149 79.1504C745.379 72.609 728.442 66.4917 711.472 60.9296C707.916 59.5998 704.866 58.4014 702.489 57.3528C700.784 56.6009 699.355 55.8965 697.889 55.1776C695.892 54.1996 693.832 53.196 690.924 52.0358C688.6 51.1138 685.814 50.2156 683.905 49.775C683.016 49.5697 682.319 49.463 681.689 49.3653C680.966 49.2533 680.32 49.1532 679.561 48.94C679.013 48.7861 678.458 48.5686 677.776 48.3035C676.688 47.8807 675.272 47.3305 673.064 46.7318C664.842 44.5001 655.243 42.1382 646.006 40.0706C635.507 37.7113 625.494 35.7265 617.248 34.1475C608.17 32.3943 594.991 30.4191 581.88 28.966C572.598 27.9228 563.508 27.1313 555.498 26.5187C547.723 25.9212 539.663 25.2718 531.788 24.8076C522.412 24.2486 513.251 23.9648 505.566 24.2C504.01 24.2473 502.083 24.5062 499.644 24.8534C497.921 25.0996 495.941 25.392 493.694 25.6827C483.909 25.9359 474.079 26.4698 464.327 27.28C463.981 27.2743 463.624 27.2664 463.267 27.2609C463.261 27.2606 463.255 27.2622 463.249 27.2619C455.149 27.1532 444.009 27.1149 428.729 30.028C424.851 30.7731 422.448 31.4695 420.288 32.1016C418.167 32.7248 416.276 33.2905 413.461 33.8436C410.266 34.4722 406.443 35.0173 402.304 35.6633C396.492 36.5685 389.977 37.6918 383.614 39.4633C383.182 39.5837 382.716 39.7139 382.232 39.8496C377.636 41.1333 370.805 43.1307 364.18 45.523C344.07 51.1807 324.378 57.9113 304.999 65.5606C272.776 78.2776 241.463 93.5475 211.342 110.256C196.653 118.397 183.085 127.131 173.526 134.243C164.029 141.323 159.121 146.227 159.968 147.583C160.813 148.957 167.346 146.7 178 141.744C188.723 136.747 202.873 129.419 217.532 121.696C241.454 109.076 265.874 97.4781 290.814 87.2926C292.125 86.7785 293.441 86.2653 294.749 85.7581C304.588 81.9432 313.738 78.8954 323.099 75.9915C325.236 75.33 327.374 74.679 329.517 74.0378C345.804 68.9397 377.191 59.4953 394.807 55.6433C395.129 55.569 395.451 55.4962 395.773 55.4224C399.945 54.4635 403.903 53.6265 408.547 52.7092C419.661 50.6448 434.622 47.422 466.352 44.2233C475.582 43.5043 484.879 43.0248 494.138 42.7852C594.613 40.0186 694.073 66.9031 787.655 104.984C788.834 105.478 790.036 105.983 791.251 106.497C794.244 107.763 797.339 109.088 800.505 110.457C821.649 119.579 845.647 131.322 855.63 142.112C870.481 156.654 852.899 170.881 844.316 179.692C834.153 188.798 822.698 197.004 811.005 205.049C756.597 242.321 694.986 269.121 630.893 285.514C606.503 291.749 581.716 296.479 556.736 299.689C533.73 302.645 510.569 304.321 487.383 304.702C473.875 304.784 461.046 304.385 449.169 303.696C432.483 302.73 417.687 301.193 405.501 299.727C376.119 296.316 343.11 290.044 319.017 283.687C315.077 282.666 311.367 281.658 307.944 280.696C288.973 275.09 270.284 268.485 252.043 260.893C250.797 260.452 249.541 260.005 248.267 259.546C232.422 253.75 213.277 245.384 184.998 228.988C179.271 225.64 173.171 221.931 166.673 217.77L163.526 215.713L160.526 218.133C153.668 223.774 146.245 229.891 138.186 236.555C128.445 244.611 123.64 248.994 119.716 252.575C118.562 253.629 117.481 254.618 116.376 255.605C112.586 258.992 108.305 262.216 103.249 266.024C96.6899 270.963 88.8188 276.887 79.0131 285.433C64.2341 298.313 53.1694 307.55 44.4459 314.589C44.4812 314.5 44.5167 314.41 44.5518 314.32C49.1864 302.746 53.6201 285.733 57.1215 273.297C59.7826 263.349 67.1827 244.427 76.6381 232.669C80.0719 228.147 84.9435 222.214 91.5713 215.943C97.4532 210.354 104.724 204.503 113.057 198.92L119.642 194.483L113.402 189.406C112.085 188.331 110.786 187.255 109.507 186.182C86.26 166.615 75.9287 154.459 68.2693 144.432C66.109 141.563 64.1658 138.803 62.3262 136.021C56.4289 127.222 50.219 115.521 44.2503 103.112C41.3204 97.0146 38.3444 90.842 35.4354 84.8868C57.0716 97.0541 78.7134 109.212 100.357 121.361C115.218 129.701 129.783 137.178 140.847 142.104C151.907 147.028 158.565 149.011 159.378 147.591C160.19 146.17 155.098 141.44 145.239 134.412C135.376 127.384 121.544 118.633 106.812 110.066C77.9879 93.3083 49.1578 76.5469 20.3067 59.8293L0.000142294 48.3234L11.1778 68.7594Z" fill="#ED6758"/>
<path d="M282.101 98.2763L300.452 133.309L295.767 186.352C295.528 189.06 297.597 191.421 300.313 191.539L305.807 191.778C308.626 191.901 310.936 189.563 310.779 186.745L308.044 137.665C307.897 135.033 305.645 133.019 303.014 133.166L300.452 133.309L282.101 98.2763L319.343 83.6383C322.281 82.4834 325.511 84.4493 325.835 87.5899L344.958 273.063C345.298 276.359 342.258 278.989 339.045 278.179L308.142 270.39C306.09 269.873 304.624 268.067 304.54 265.953L303.259 233.836C303.03 228.106 294.742 227.577 293.786 233.231L289.36 259.419C288.863 262.363 285.815 264.132 283.013 263.104L268.13 257.647C266.068 256.891 264.788 254.826 265.029 252.643L282.101 98.2763Z" fill="white"/>
<path d="M404.562 68.2532C404.441 66.0694 405.826 64.076 407.921 63.4491C430.822 56.5982 445.818 55.0715 470.642 56.3654C473.058 56.4914 474.988 58.4281 475.123 60.8438L477.829 109.419C477.976 112.05 475.962 114.302 473.331 114.449L461.393 115.114C458.562 115.272 456.492 117.849 456.949 120.647L484.648 290.374C485.036 292.752 483.589 295.057 481.259 295.671C461.424 300.891 449.112 299.482 429.928 292.208C428.034 291.49 426.821 289.629 426.9 287.604L433.358 122.347C433.473 119.382 430.884 117.031 427.945 117.432L412.58 119.528C409.82 119.905 407.326 117.847 407.171 115.066L404.562 68.2532Z" fill="white"/>
<path d="M479.512 60.6237C479.362 57.9302 481.472 55.6479 484.169 55.5876L514.419 54.9113C517.06 54.8523 519.246 56.9496 519.297 59.5905L522.794 242.174L527.908 193.734C528.47 188.407 536.031 187.906 537.291 193.112L548.812 240.724L531.584 62.0141C531.292 58.9927 533.859 56.4709 536.875 56.8153L568.665 60.4462C570.975 60.71 572.759 62.6002 572.888 64.9216L584.985 282.001C585.097 284.024 583.919 285.907 582.033 286.647C570.784 291.059 563.025 292.5 551.665 291.193C549.765 290.974 548.222 289.577 547.74 287.726L540.47 259.832C539.171 254.846 531.984 255.174 531.145 260.259L526.13 290.636C525.838 292.403 524.581 293.869 522.862 294.37C512.978 297.254 506.248 297.547 496.295 295.99C494.118 295.65 492.506 293.807 492.383 291.608L479.512 60.6237Z" fill="white"/>
<path d="M578.801 66.4825C578.627 63.3504 581.47 60.9049 584.541 61.5461L654.667 76.189C656.488 76.5692 657.927 77.9729 658.32 79.7911C661.218 93.2076 661.627 102.136 660.538 115.344C660.314 118.063 657.818 120.001 655.121 119.595L613.334 113.317C610.342 112.867 607.693 115.28 607.861 118.301L609.373 145.442C609.52 148.073 611.772 150.088 614.403 149.941L634.051 148.846C636.181 148.727 638.14 150.041 638.797 152.071C645.133 171.654 645.229 184.188 641.553 204.392C641.196 206.355 639.633 207.878 637.664 208.205L615.984 211.8C613.581 212.198 611.864 214.342 612 216.773L612.967 234.136C613.137 237.185 616.087 239.292 619.027 238.463L661.055 226.613C663.697 225.869 666.431 227.503 666.953 230.198C669.252 242.083 669.523 250.382 668.498 262.814C668.333 264.809 666.917 266.477 664.98 266.983C634.492 274.96 624.306 276.712 596.278 282.219C593.433 282.778 590.738 280.697 590.577 277.802L578.801 66.4825Z" fill="white"/>
<path d="M663.641 85.596C663.466 82.4502 666.334 80.001 669.413 80.6664L708.033 89.0109C710.236 89.4869 711.806 91.4398 711.797 93.6939L711.365 202.659C711.352 206.011 714.707 208.331 717.838 207.136L732.656 201.481C735.675 200.329 738.942 202.447 739.122 205.674L740.628 232.699C740.738 234.675 739.626 236.509 737.82 237.315C728.702 241.385 700.621 253.901 679.94 262.919C676.897 264.246 673.478 262.125 673.294 258.811L663.641 85.596Z" fill="white"/>
<path d="M735.549 103.116C735.307 99.7791 738.486 97.2357 741.689 98.2033L767.362 105.959C769.283 106.54 770.635 108.259 770.747 110.262L774.508 177.764C774.684 180.915 777.815 183.03 780.804 182.018L805.078 173.795C805.964 173.495 806.925 173.457 807.824 173.718C815.592 175.974 819.06 178.969 821.285 185.794C821.926 187.762 821.042 189.852 819.277 190.934C802.822 201.015 766.851 223.406 751.935 232.7C748.886 234.599 744.935 232.561 744.675 228.978L735.549 103.116Z" fill="white"/>
<path d="M393.414 67.5663C396.212 66.8993 398.904 68.9782 399.064 71.8498L401.314 112.226C401.496 115.495 398.39 117.958 395.154 117.459C362.615 112.438 359.309 146.082 382.899 144.767C453.885 140.812 427.479 299.316 355.067 278.87C353.292 278.368 351.988 276.777 351.784 274.943L346.389 226.398C345.957 222.512 350.218 219.76 353.799 221.331C407.174 244.735 418.508 175.701 384.728 177.584C322.529 181.05 315.024 86.256 393.414 67.5663Z" fill="white"/>
<path d="M264.338 109.174C267.616 107.648 271.357 110.172 271.135 113.781L268.865 150.62C268.704 153.231 266.429 155.211 263.813 155.192C201.722 154.746 204.61 210.745 259.975 201.633C263.419 201.066 266.584 204.028 265.916 207.454L258.559 245.182C258.002 248.037 254.898 249.684 252.159 248.703C94.0923 192.076 158.815 158.278 264.338 109.174Z" fill="white"/>
</svg>
